HIERARCHY
ROOT __0
{
	OFFSET 0.0 0.0 0.0
	CHANNELS 0
	JOINT spine
	{
		OFFSET 0.000162 -0.056932 1.012679
		CHANNELS 6 Xposition Yposition Zposition Xrotation Yrotation Zrotation
		JOINT spine.001
		{
			OFFSET 0.000320 0.008121 0.058438
			CHANNELS 6 Xposition Yposition Zposition Xrotation Yrotation Zrotation
			JOINT spine.002
			{
				OFFSET -0.001292 0.032221 0.118110
				CHANNELS 6 Xposition Yposition Zposition Xrotation Yrotation Zrotation
				JOINT spine.002_end
				{
					OFFSET -0.001419 0.000034 0.121209
					CHANNELS 3 Xrotation Yrotation Zrotation
					End Site
					{
						OFFSET -0.001419 0.000034 0.121209
					}
				}
			}
		}
		JOINT pelvis.L
		{
			OFFSET -0.000000 -0.000000 -0.000000
			CHANNELS 6 Xposition Yposition Zposition Xrotation Yrotation Zrotation
			JOINT pelvis.L_end
			{
				OFFSET -0.072247 0.002503 -0.038786
				CHANNELS 3 Xrotation Yrotation Zrotation
				End Site
				{
					OFFSET -0.072247 0.002503 -0.038786
				}
			}
		}
		JOINT pelvis.R
		{
			OFFSET -0.000324 -0.000000 -0.000000
			CHANNELS 6 Xposition Yposition Zposition Xrotation Yrotation Zrotation
			JOINT pelvis.R_end
			{
				OFFSET 0.072247 0.002503 -0.038786
				CHANNELS 3 Xrotation Yrotation Zrotation
				End Site
				{
					OFFSET 0.072247 0.002503 -0.038786
				}
			}
		}
		JOINT thigh.L
		{
			OFFSET -0.127459 0.002541 -0.038809
			CHANNELS 6 Xposition Yposition Zposition Xrotation Yrotation Zrotation
			JOINT shin.L
			{
				OFFSET 0.014330 -0.016530 -0.429637
				CHANNELS 6 Xposition Yposition Zposition Xrotation Yrotation Zrotation
				JOINT foot.L
				{
					OFFSET 0.003313 0.024476 -0.456592
					CHANNELS 6 Xposition Yposition Zposition Xrotation Yrotation Zrotation
					JOINT toe.L
					{
						OFFSET -0.002644 0.085599 -0.066570
						CHANNELS 6 Xposition Yposition Zposition Xrotation Yrotation Zrotation
						JOINT toe.L_end
						{
							OFFSET 0.000002 0.066666 -0.008452
							CHANNELS 3 Xrotation Yrotation Zrotation
							End Site
							{
								OFFSET 0.000002 0.066666 -0.008452
							}
						}
					}
					JOINT heel.02.L
					{
						OFFSET 0.049654 -0.016617 -0.087640
						CHANNELS 6 Xposition Yposition Zposition Xrotation Yrotation Zrotation
						JOINT heel.02.L_end
						{
							OFFSET -0.079799 -0.000000 -0.005673
							CHANNELS 3 Xrotation Yrotation Zrotation
							End Site
							{
								OFFSET -0.079799 -0.000000 -0.005673
							}
						}
					}
				}
			}
		}
		JOINT thigh.R
		{
			OFFSET 0.127135 0.002541 -0.038809
			CHANNELS 6 Xposition Yposition Zposition Xrotation Yrotation Zrotation
			JOINT shin.R
			{
				OFFSET -0.014330 -0.016530 -0.429637
				CHANNELS 6 Xposition Yposition Zposition Xrotation Yrotation Zrotation
				JOINT foot.R
				{
					OFFSET -0.003313 0.024476 -0.456592
					CHANNELS 6 Xposition Yposition Zposition Xrotation Yrotation Zrotation
					JOINT toe.R
					{
						OFFSET 0.002644 0.085599 -0.066570
						CHANNELS 6 Xposition Yposition Zposition Xrotation Yrotation Zrotation
						JOINT toe.R_end
						{
							OFFSET -0.000001 0.066666 -0.008452
							CHANNELS 3 Xrotation Yrotation Zrotation
							End Site
							{
								OFFSET -0.000001 0.066666 -0.008452
							}
						}
					}
					JOINT heel.02.R
					{
						OFFSET -0.049654 -0.016617 -0.087641
						CHANNELS 6 Xposition Yposition Zposition Xrotation Yrotation Zrotation
						JOINT heel.02.R_end
						{
							OFFSET 0.079897 -0.000000 -0.004051
							CHANNELS 3 Xrotation Yrotation Zrotation
							End Site
							{
								OFFSET 0.079897 -0.000000 -0.004051
							}
						}
					}
				}
			}
		}
	}
	JOINT spine.003
	{
		OFFSET -0.002228 -0.016557 1.310435
		CHANNELS 6 Xposition Yposition Zposition Xrotation Yrotation Zrotation
		JOINT spine.004
		{
			OFFSET -0.003009 0.000086 0.121993
			CHANNELS 6 Xposition Yposition Zposition Xrotation Yrotation Zrotation
			JOINT spine.005
			{
				OFFSET -0.002254 0.000160 0.129929
				CHANNELS 3 Xrotation Yrotation Zrotation
				JOINT spine.006
				{
					OFFSET -0.000135 -0.000162 0.071697
					CHANNELS 3 Xrotation Yrotation Zrotation
					JOINT spine.006_end
					{
						OFFSET -0.000571 -0.002162 0.198302
						CHANNELS 3 Xrotation Yrotation Zrotation
						End Site
						{
							OFFSET -0.000571 -0.002162 0.198302
						}
					}
				}
			}
		}
		JOINT shoulder.L
		{
			OFFSET -0.003009 0.000086 0.121993
			CHANNELS 6 Xposition Yposition Zposition Xrotation Yrotation Zrotation
			JOINT upper_arm.L
			{
				OFFSET -0.150343 0.010516 0.017190
				CHANNELS 6 Xposition Yposition Zposition Xrotation Yrotation Zrotation
				JOINT forearm.L
				{
					OFFSET -0.168473 -0.042919 -0.099665
					CHANNELS 6 Xposition Yposition Zposition Xrotation Yrotation Zrotation
					JOINT hand.L
					{
						OFFSET -0.195861 -0.007323 -0.130223
						CHANNELS 3 Xrotation Yrotation Zrotation
						JOINT hand.L_end
						{
							OFFSET -0.061460 0.002182 -0.033437
							CHANNELS 3 Xrotation Yrotation Zrotation
							End Site
							{
								OFFSET -0.061460 0.002182 -0.033437
							}
						}
					}
				}
			}
		}
		JOINT shoulder.R
		{
			OFFSET -0.003009 0.000086 0.121993
			CHANNELS 6 Xposition Yposition Zposition Xrotation Yrotation Zrotation
			JOINT upper_arm.R
			{
				OFFSET 0.160819 0.010516 0.017190
				CHANNELS 6 Xposition Yposition Zposition Xrotation Yrotation Zrotation
				JOINT forearm.R
				{
					OFFSET 0.168473 -0.042919 -0.099665
					CHANNELS 3 Xrotation Yrotation Zrotation
					JOINT hand.R
					{
						OFFSET 0.201860 0.019004 -0.120869
						CHANNELS 3 Xrotation Yrotation Zrotation
						JOINT hand.R_end
						{
							OFFSET 0.060711 0.010731 -0.033206
							CHANNELS 3 Xrotation Yrotation Zrotation
							End Site
							{
								OFFSET 0.060711 0.010731 -0.033206
							}
						}
					}
				}
			}
		}
		JOINT breast.L
		{
			OFFSET -0.074125 -0.086365 0.053266
			CHANNELS 6 Xposition Yposition Zposition Xrotation Yrotation Zrotation
			JOINT breast.L_end
			{
				OFFSET -0.000000 0.139200 0.000000
				CHANNELS 3 Xrotation Yrotation Zrotation
				End Site
				{
					OFFSET -0.000000 0.139200 0.000000
				}
			}
		}
		JOINT breast.R
		{
			OFFSET 0.078582 -0.086365 0.053266
			CHANNELS 6 Xposition Yposition Zposition Xrotation Yrotation Zrotation
			JOINT breast.R_end
			{
				OFFSET 0.000000 0.139200 0.000000
				CHANNELS 3 Xrotation Yrotation Zrotation
				End Site
				{
					OFFSET 0.000000 0.139200 0.000000
				}
			}
		}
	}
}
MOTION
Frames: 4
Frame Time: 0.016667
0.000162 -0.056933 1.012679 0.000021 0.000025 -0.000018 0.000320 0.008121 0.058438 0.000017 -0.000016 0.000047 -0.001292 0.032221 0.118110 -0.000014 0.000010 0.000011 -0.000000 0.000000 -0.000000 -0.000000 0.000000 0.000000 -0.000005 -0.000031 0.000027 0.000000 -0.000002 0.000000 -0.000324 0.000000 0.000000 0.000008 -0.000047 0.000004 0.000000 -0.000002 -0.000000 -0.127459 0.002541 -0.038809 9.362477 -8.884854 5.433882 0.014330 -0.016530 -0.429637 -7.066570 -5.238291 9.821109 0.003315 0.024476 -0.456592 17.306871 2.520749 30.126014 -0.002642 0.085598 -0.066572 18.799780 0.438169 -0.002572 -0.000001 0.000001 -0.000003 0.049654 -0.016617 -0.087642 -0.000084 4.066223 0.000194 -0.000001 -0.000000 -0.000003 0.127135 0.002540 -0.038809 36.351353 -10.771879 -42.245751 -0.014330 -0.016530 -0.429637 -42.772632 3.939876 -7.068458 -0.003314 0.024476 -0.456592 18.699842 8.766666 -30.989927 0.002643 0.085598 -0.066572 0.004675 0.000030 -0.000166 -0.000001 0.000002 0.000002 -0.049654 -0.016617 -0.087642 -0.000095 -2.902795 -0.000217 0.000000 0.000003 0.000002 -0.002228 -0.016557 1.310436 1.026111 9.666344 -1.157119 -0.003009 0.000086 0.121992 3.838122 3.610486 -1.787971 3.838118 3.610498 -1.787940 3.838122 3.610487 -1.787927 -0.000003 0.000001 0.000000 -0.003009 0.000086 0.121992 7.854011 19.444471 5.192839 -0.150343 0.010516 0.017190 11.498059 -21.843196 -107.734363 -0.168473 -0.042919 -0.099665 34.274367 -18.165532 -61.961782 10.332889 -3.190896 -35.381336 -0.000002 -0.000002 -0.000004 -0.003009 0.000086 0.121993 4.148779 14.121973 -15.272704 0.160819 0.010516 0.017190 -43.008666 35.704247 50.398255 -8.649361 0.803154 -14.552041 22.087814 -12.884911 -9.177760 0.000000 0.000001 0.000001 -0.074125 -0.086365 0.053266 0.000024 0.000000 0.000002 0.000000 0.000000 -0.000000 0.078582 -0.086365 0.053266 0.000032 -0.000003 -0.000044 0.000000 -0.000000 0.000000 
0.000162 -0.056933 1.012679 0.000021 0.000025 -0.000018 0.000320 0.008121 0.058438 0.000017 -0.000016 0.000047 -0.001292 0.032221 0.118110 -0.000014 0.000010 0.000011 -0.000000 0.000000 -0.000000 -0.000000 0.000000 0.000000 -0.000005 -0.000031 0.000027 0.000000 -0.000002 0.000000 -0.000324 0.000000 0.000000 0.000008 -0.000047 0.000004 0.000000 -0.000002 -0.000000 -0.127459 0.002541 -0.038809 9.495892 -9.580154 5.560274 0.014330 -0.016530 -0.429637 -7.008949 -4.472415 9.825882 0.003315 0.024476 -0.456592 17.322347 0.949376 30.028548 -0.002642 0.085598 -0.066572 19.687663 0.550589 -0.004310 0.000001 -0.000002 0.000001 0.049654 -0.016617 -0.087642 -0.000085 4.066223 0.000193 0.000002 0.000002 0.000002 0.127135 0.002541 -0.038809 36.730353 -11.635506 -40.286105 -0.014330 -0.016530 -0.429637 -42.833390 5.008674 -7.018104 -0.003314 0.024476 -0.456592 19.061511 8.858043 -31.009667 0.002643 0.085598 -0.066572 -0.003743 0.005883 -0.000182 0.000001 -0.000001 0.000001 -0.049654 -0.016617 -0.087642 -0.000093 -2.902795 -0.000219 0.000000 -0.000001 0.000002 -0.002228 -0.016557 1.310435 1.109528 9.046008 -0.915629 -0.003009 0.000086 0.121992 3.923195 3.370086 -1.560384 3.923210 3.370081 -1.560350 3.923162 3.370100 -1.560339 -0.000001 -0.000001 -0.000001 -0.003009 0.000086 0.121992 7.683616 19.106317 5.605523 -0.150343 0.010516 0.017189 15.144708 -24.097138 -105.020934 -0.168473 -0.042919 -0.099665 34.883654 -19.271797 -63.643388 10.497051 -3.960204 -37.441103 0.000000 -0.000001 0.000001 -0.003009 0.000086 0.121992 4.293576 12.922462 -13.747750 0.160819 0.010516 0.017190 -45.232463 35.262962 51.476533 -8.115840 0.669139 -13.640258 15.154795 -15.005719 -13.333697 -0.000000 0.000001 -0.000000 -0.074125 -0.086365 0.053266 0.000024 0.000000 0.000002 0.000000 0.000000 0.000000 0.078582 -0.086365 0.053266 0.000033 -0.000003 -0.000044 0.000000 0.000000 0.000000 
0.000162 -0.056933 1.012679 0.000021 0.000025 -0.000018 0.000320 0.008121 0.058438 0.000017 -0.000016 0.000047 -0.001292 0.032221 0.118110 -0.000014 0.000010 0.000011 -0.000000 0.000000 -0.000000 -0.000000 0.000000 0.000000 -0.000005 -0.000031 0.000027 0.000000 -0.000002 0.000000 -0.000324 0.000000 0.000000 0.000008 -0.000047 0.000004 0.000000 -0.000002 -0.000000 -0.127459 0.002541 -0.038809 9.320250 -9.872378 5.968040 0.014330 -0.016530 -0.429637 -6.990090 -4.136813 9.828094 0.003315 0.024476 -0.456592 17.202306 0.210245 29.925890 -0.002642 0.085598 -0.066572 19.737684 0.063757 0.000152 -0.000002 -0.000003 0.000003 0.049654 -0.016617 -0.087642 -0.000086 4.066222 0.000199 -0.000001 0.000001 -0.000000 0.127135 0.002540 -0.038809 37.540164 -11.552553 -36.363053 -0.014330 -0.016530 -0.429637 -42.428558 5.793115 -6.739597 -0.003314 0.024476 -0.456592 19.394172 8.970840 -31.032801 0.002643 0.085598 -0.066572 -0.022601 0.032823 -0.000234 -0.000000 0.000003 0.000002 -0.049654 -0.016617 -0.087642 -0.000099 -2.902794 -0.000220 -0.000000 0.000002 0.000001 -0.002228 -0.016557 1.310435 1.077160 8.447203 -0.721789 -0.003009 0.000086 0.121993 3.856976 3.241061 -1.368404 3.856946 3.241083 -1.368367 3.857021 3.241063 -1.368367 -0.000001 0.000000 0.000001 -0.003009 0.000086 0.121992 7.145951 18.865952 5.870562 -0.150343 0.010516 0.017189 18.535248 -25.062560 -102.639821 -0.168473 -0.042919 -0.099665 35.237888 -19.949967 -64.661531 10.280836 -4.303650 -39.313575 -0.000000 -0.000000 -0.000002 -0.003009 0.000086 0.121992 4.082787 12.100069 -12.540127 0.160819 0.010516 0.017190 -46.969623 34.737652 52.976785 -7.738336 0.579740 -12.996518 7.248465 -16.745428 -18.117666 0.000001 0.000004 0.000001 -0.074125 -0.086364 0.053266 0.000024 0.000000 0.000002 0.000000 0.000000 0.000000 0.078582 -0.086365 0.053266 0.000033 -0.000004 -0.000044 0.000000 0.000000 0.000000 
0.000162 -0.056933 1.012679 0.000021 0.000025 -0.000018 0.000320 0.008121 0.058438 0.000017 -0.000016 0.000047 -0.001292 0.032221 0.118110 -0.000014 0.000010 0.000011 -0.000000 0.000000 -0.000000 -0.000000 0.000000 0.000000 -0.000005 -0.000031 0.000027 0.000000 -0.000002 0.000000 -0.000324 0.000000 0.000000 0.000008 -0.000047 0.000004 0.000000 -0.000002 -0.000000 -0.127459 0.002541 -0.038809 8.892409 -9.839576 6.408912 0.014330 -0.016530 -0.429637 -6.987749 -4.046689 9.796563 0.003315 0.024476 -0.456592 16.859837 -0.677377 26.990710 -0.002642 0.085598 -0.066572 19.779512 -0.000094 0.000248 0.000000 0.000001 0.000003 0.049654 -0.016617 -0.087642 -0.000085 4.066222 0.000197 0.000001 0.000001 -0.000000 0.127135 0.002541 -0.038809 38.558023 -10.783767 -31.493760 -0.014330 -0.016530 -0.429637 -41.715582 6.045822 -6.529771 -0.003314 0.024476 -0.456592 19.274620 8.809183 -30.992895 0.002643 0.085598 -0.066572 -0.000252 0.000030 -0.000191 -0.000002 -0.000003 -0.000001 -0.049654 -0.016617 -0.087641 -0.000097 -2.902791 -0.000220 -0.000002 -0.000002 -0.000001 -0.002228 -0.016557 1.310435 0.968566 7.949007 -0.615876 -0.003009 0.000086 0.121992 3.675299 3.197397 -1.259598 3.675268 3.197398 -1.259558 3.675325 3.197406 -1.259552 -0.000000 -0.000000 0.000000 -0.003009 0.000086 0.121992 6.427768 18.685893 5.808912 -0.150343 0.010516 0.017190 21.267058 -24.820405 -100.770152 -0.168473 -0.042919 -0.099665 35.380807 -20.231620 -65.081806 9.672198 -4.370862 -40.618838 0.000000 0.000001 -0.000000 -0.003009 0.000086 0.121992 3.648936 11.623342 -11.829783 0.160819 0.010516 0.017190 -48.143220 34.054005 54.701677 -7.637605 0.556643 -12.824927 -0.394876 -18.327424 -23.775882 0.000001 -0.000006 -0.000003 -0.074125 -0.086365 0.053266 0.000024 0.000001 0.000002 0.000000 0.000000 0.000000 0.078582 -0.086365 0.053266 0.000033 -0.000003 -0.000044 -0.000000 0.000000 0.000000 
